<svg width="24" height="24" viewBox="0 0 24 24" fill="none" xmlns="http://www.w3.org/2000/svg">
<path d="M13.4065 17.1209C13.4065 17.1209 17.0033 20.7177 17.2617 20.9761C18.0937 21.8081 19.4417 21.8081 20.2729 20.9761C21.1049 20.1441 21.1049 18.7961 20.2729 17.9641C20.0145 17.7057 16.4177 14.1089 16.4177 14.1089L13.4065 17.1209Z" fill="#5CA3E1"/>
<path d="M19.1984 8.80244L16.6376 8.16244L15.9976 5.60164L18.9624 2.63684C17.2592 2.09524 15.3216 2.49604 13.9704 3.84644C12.0424 5.77444 12.6592 8.28404 14.588 10.212C16.516 12.14 19.0256 12.7576 20.9536 10.8288C22.3048 9.47764 22.7056 7.54004 22.1632 5.83764L19.1984 8.80244Z" fill="#5CA3E1"/>
<path d="M9.99998 9.1999L7.19998 6.3999L6.39998 3.9999L3.19998 2.3999L1.59998 3.9999L3.19998 7.1999L5.59998 7.9999L8.39998 10.7999L9.99998 9.1999Z" fill="#5CA3E1"/>
<path d="M14.3032 7.10327C11.6119 9.79447 4.19435 17.2121 3.90315 17.5033C2.96555 18.4409 2.96555 19.9601 3.90315 20.8977C4.84075 21.8353 6.35995 21.8353 7.29755 20.8977C7.58875 20.6065 15.0064 13.1889 17.6975 10.4977L14.3032 7.10327ZM5.59995 20.0001C5.15835 20.0001 4.79995 19.6417 4.79995 19.2001C4.79995 18.7585 5.15835 18.4001 5.59995 18.4001C6.04155 18.4001 6.39995 18.7585 6.39995 19.2001C6.39995 19.6417 6.04155 20.0001 5.59995 20.0001Z" fill="#5CA3E1"/>
</svg>
