<svg width="24" height="24" viewBox="0 0 24 24" fill="none" xmlns="http://www.w3.org/2000/svg">
<path d="M17.6 11.8056V9.6C17.6 6.5072 15.0928 4 12 4C8.9072 4 6.4 6.5072 6.4 9.6V11.8056C6.4 13.9792 5.5368 16.0632 4 17.6V19.2H20V17.6C18.4632 16.0632 17.6 13.9792 17.6 11.8056Z" fill="#5CA3E1"/>
<path d="M12.0001 23.2C13.3257 23.2 14.4001 22.1256 14.4001 20.8H9.6001C9.6001 22.1256 10.6745 23.2 12.0001 23.2Z" fill="#5CA3E1"/>
<path d="M13.5999 5.5999H10.3999V3.9999C10.3999 3.1159 11.1159 2.3999 11.9999 2.3999C12.8839 2.3999 13.5999 3.1159 13.5999 3.9999V5.5999Z" fill="#5CA3E1"/>
<path d="M20 19.2001C20.4418 19.2001 20.7999 18.8419 20.7999 18.4001C20.7999 17.9583 20.4418 17.6001 20 17.6001C19.5581 17.6001 19.2 17.9583 19.2 18.4001C19.2 18.8419 19.5581 19.2001 20 19.2001Z" fill="#5CA3E1"/>
<path d="M3.99995 19.2001C4.44178 19.2001 4.79995 18.8419 4.79995 18.4001C4.79995 17.9583 4.44178 17.6001 3.99995 17.6001C3.55812 17.6001 3.19995 17.9583 3.19995 18.4001C3.19995 18.8419 3.55812 19.2001 3.99995 19.2001Z" fill="#5CA3E1"/>
</svg>
