<svg width="63" height="61" viewBox="0 0 63 61" fill="none" xmlns="http://www.w3.org/2000/svg">
<path d="M39.2613 41.3628V36.249C40.4119 35.6788 43.7025 31.7616 44.0477 28.7009C44.9528 28.6319 46.3744 27.8009 46.7937 24.5204C47.0187 22.7586 46.1238 21.7691 45.5818 21.4572C45.5818 21.4572 46.9318 18.8926 46.9318 15.7961C46.9318 9.58793 44.4951 4.28998 39.2613 4.28998C39.2613 4.28998 37.4434 0.45459 31.5909 0.45459C20.7449 0.45459 16.25 7.41198 16.25 15.7961C16.25 18.619 17.6 21.4572 17.6 21.4572C17.0579 21.7691 16.163 22.7612 16.388 24.5204C16.8074 27.8009 18.2289 28.6319 19.1341 28.7009C19.4792 31.7616 22.7699 35.6788 23.9204 36.249V41.3628C21.3636 49.0336 0.909058 43.9198 0.909058 61.8182H62.2727C62.2727 43.9198 41.8181 49.0336 39.2613 41.3628Z" fill="white"/>
</svg>
