<svg width="72" height="72" viewBox="0 0 72 72" fill="none" xmlns="http://www.w3.org/2000/svg">
<rect width="72" height="72" rx="18" fill="#0051EE"/>
<mask id="mask0_1_594" style="mask-type:alpha" maskUnits="userSpaceOnUse" x="0" y="0" width="72" height="72">
<rect width="72" height="72" rx="18" fill="white"/>
</mask>
<g mask="url(#mask0_1_594)">
<path d="M43.2613 52.3628V47.249C44.4119 46.6788 47.7025 42.7616 48.0477 39.7009C48.9528 39.6319 50.3744 38.8009 50.7937 35.5204C51.0187 33.7586 50.1238 32.7691 49.5818 32.4572C49.5818 32.4572 50.9318 29.8926 50.9318 26.7961C50.9318 20.5879 48.4951 15.29 43.2613 15.29C43.2613 15.29 41.4434 11.4546 35.5909 11.4546C24.7449 11.4546 20.25 18.412 20.25 26.7961C20.25 29.619 21.6 32.4572 21.6 32.4572C21.0579 32.7691 20.163 33.7612 20.388 35.5204C20.8074 38.8009 22.2289 39.6319 23.1341 39.7009C23.4792 42.7616 26.7699 46.6788 27.9204 47.249V52.3628C25.3636 60.0336 4.90906 54.9198 4.90906 72.8182H66.2727C66.2727 54.9198 45.8181 60.0336 43.2613 52.3628Z" fill="white"/>
</g>
</svg>
