<svg width="136" height="136" viewBox="0 0 136 136" fill="none" xmlns="http://www.w3.org/2000/svg">
<path d="M85 90.6648V79.331C87.55 78.0673 94.843 69.3856 95.608 62.6023C97.614 62.4493 100.765 60.6075 101.694 53.3369C102.193 49.4324 100.209 47.2393 99.008 46.5479C99.008 46.5479 102 40.864 102 34.0014C102 20.2422 96.5997 8.50035 85 8.50035C85 8.50035 80.971 0 68 0C43.962 0 34 15.4196 34 34.0014C34 40.2577 36.992 46.5479 36.992 46.5479C35.7907 47.2393 33.8073 49.4381 34.306 53.3369C35.2353 60.6075 38.386 62.4493 40.392 62.6023C41.157 69.3856 48.45 78.0673 51 79.331V90.6648C45.3333 107.665 0 96.3317 0 136H136C136 96.3317 90.6667 107.665 85 90.6648Z" fill="#DADADA"/>
</svg>
