<svg width="24" height="24" viewBox="0 0 24 24" fill="none" xmlns="http://www.w3.org/2000/svg">
<path d="M20.8 4.00002H19.2C18.1752 2.97523 16.7864 2.40003 15.3376 2.40003H7.20005L5.60005 4.00002V7.20003L5.20005 15.2H12.8C12.8 15.2 12 17.8128 12 18.4C12 20.2008 12 22.4 14.4 22.4C15.2 22.4 15.2 22.4 15.2 22.4L15.6008 19.6072L17.4944 16.0848C18.052 15.0472 19.1344 14.4 20.3128 14.4H20.8V4.00002Z" fill="#C0D0DE"/>
<path d="M5.19995 11.2C4.09538 11.2 3.19995 12.0954 3.19995 13.2C3.19995 14.3046 4.09538 15.2 5.19995 15.2C6.30452 15.2 7.19995 14.3046 7.19995 13.2C7.19995 12.0954 6.30452 11.2 5.19995 11.2Z" fill="#C0D0DE"/>
<path d="M6 4.79999C4.89543 4.79999 4 5.69542 4 6.79999C4 7.90456 4.89543 8.79999 6 8.79999C7.10457 8.79999 8 7.90456 8 6.79999C8 5.69542 7.10457 4.79999 6 4.79999Z" fill="#C0D0DE"/>
<path d="M5.19995 8C4.09538 8 3.19995 8.89543 3.19995 10C3.19995 11.1046 4.09538 12 5.19995 12C6.30452 12 7.19995 11.1046 7.19995 10C7.19995 8.89543 6.30452 8 5.19995 8Z" fill="#C0D0DE"/>
<path d="M7.20005 2.39998C6.31639 2.39998 5.60005 3.11632 5.60005 3.99998C5.60005 4.88363 6.31639 5.59998 7.20005 5.59998C8.0837 5.59998 8.80005 4.88363 8.80005 3.99998C8.80005 3.11632 8.0837 2.39998 7.20005 2.39998Z" fill="#C0D0DE"/>
<path d="M7.20005 2.39998C6.31639 2.39998 5.60005 3.11632 5.60005 3.99998C5.60005 4.88363 6.31639 5.59998 7.20005 5.59998C8.0837 5.59998 8.80005 4.88363 8.80005 3.99998C8.80005 3.11632 8.0837 2.39998 7.20005 2.39998Z" fill="#C0D0DE"/>
</svg>
