<svg width="24" height="24" viewBox="0 0 24 24" fill="none" xmlns="http://www.w3.org/2000/svg">
<path d="M12.5192 16.8352C11.2728 16.3984 9.9816 16.3448 9.6 15.2V13.6C9.96 13.4216 10.9888 12.196 11.0976 11.2384C11.1616 11.012 11.2112 10.2024 11.2112 10.02C11.2112 9.02082 11.196 6.95522 11.8216 5.33842C11.6032 4.25202 11.0328 3.33682 9.8096 3.21602C9.4824 2.67442 8.644 2.40002 7.5536 2.40002C3.1928 2.47522 2.7472 5.49842 3.6224 8.97122C3.4528 9.06882 3.1728 9.37922 3.2432 9.92962C3.3744 10.956 3.8192 11.216 4.1024 11.2376C4.2104 12.196 5.24 13.4216 5.6 13.6V15.2C4.8 17.6 0 15.2 0 21.6H9.6C9.6 18.7616 11.192 17.5384 12.5192 16.8352Z" fill="#5CA3E1"/>
<path d="M11.2 21.5999C11.2 17.5999 15.2 18.3999 16 16.2343V15.2143C13.1032 15.2143 12.2992 14.0216 12.2992 14.0216C13.8128 12.7624 10.9504 3.99995 16.104 3.99995C16.104 3.99995 16.8 3.19995 17.6992 3.19995C24 3.19995 21.1568 12.7144 22.7864 14.052C22.7864 14.052 22.1112 15.2039 19.2 15.2039V16.2343C20 18.3999 24 17.5999 24 21.5999H11.2Z" fill="#5CA3E1"/>
</svg>
