<svg width="24" height="24" viewBox="0 0 24 24" fill="none" xmlns="http://www.w3.org/2000/svg">
<path d="M22 5.71998L17.405 1.86499L16.12 3.39499L20.715 7.24998L22 5.71998ZM7.88 3.38999L6.595 1.85999L2 5.71498L3.285 7.24498L7.88 3.38999ZM12.5 7.99998H11V14L15.745 16.855L16.5 15.62L12.5 13.25V7.99998ZM11.995 3.99998C7.02 3.99998 3 8.02998 3 13C3 17.97 7.02 22 11.995 22C16.97 22 21 17.97 21 13C21 8.02998 16.97 3.99998 11.995 3.99998ZM12 20C8.135 20 5 16.865 5 13C5 9.13498 8.135 5.99998 12 5.99998C15.865 5.99998 19 9.13498 19 13C19 16.865 15.87 20 12 20Z" fill="black"/>
</svg>
