<svg width="42" height="41" viewBox="0 0 42 41" fill="none" xmlns="http://www.w3.org/2000/svg">
<path d="M35.8212 7.31567H6.17911C4.69027 7.31567 3.48438 8.52157 3.48438 10.0104V31.5683C3.48438 33.0571 4.69027 34.263 6.17911 34.263H35.8212C37.3101 34.263 38.516 33.0571 38.516 31.5683V10.0104C38.516 8.52157 37.3101 7.31567 35.8212 7.31567ZM34.4738 30.2209H7.52648V20.7894L10.6106 17.7052C11.8839 16.432 13.948 16.432 15.2213 17.7052L21.0002 23.4841L24.0843 20.4C25.3576 19.1267 27.4217 19.1267 28.695 20.4L34.4738 26.1788V30.2209ZM31.7791 16.7473C30.2903 16.7473 29.0844 15.5414 29.0844 14.0525C29.0844 12.5637 30.2903 11.3578 31.7791 11.3578C33.268 11.3578 34.4738 12.5637 34.4738 14.0525C34.4738 15.5414 33.268 16.7473 31.7791 16.7473Z" fill="black"/>
<path d="M24.6123 25.0362C24.0437 25.6048 23.1275 25.6115 22.5589 25.0429L19.6162 22.1003L21.7127 20.0752L24.6123 22.9747C25.1822 23.5447 25.1822 24.4676 24.6123 25.0362Z" fill="black"/>
</svg>
