<svg width="24" height="24" viewBox="0 0 24 24" fill="none" xmlns="http://www.w3.org/2000/svg">
<path d="M3.19995 20H4.79995C5.82475 21.0248 7.21355 21.6 8.66235 21.6H16.8L18.4 20V16.8L18.8 8.79998H11.2C11.2 8.79998 12 6.18718 12 5.59998C12 3.79918 12 1.59998 9.59995 1.59998C8.79995 1.59998 8.79995 1.59998 8.79995 1.59998L8.39915 4.39278L6.50555 7.91518C5.94795 8.95278 4.86555 9.59998 3.68715 9.59998H3.19995V20Z" fill="#C0D0DE"/>
<path d="M18.8 12.8C19.9046 12.8 20.8 11.9046 20.8 10.8C20.8 9.69542 19.9046 8.79999 18.8 8.79999C17.6955 8.79999 16.8 9.69542 16.8 10.8C16.8 11.9046 17.6955 12.8 18.8 12.8Z" fill="#C0D0DE"/>
<path d="M18 19.2C19.1046 19.2 20 18.3046 20 17.2C20 16.0954 19.1046 15.2 18 15.2C16.8954 15.2 16 16.0954 16 17.2C16 18.3046 16.8954 19.2 18 19.2Z" fill="#C0D0DE"/>
<path d="M18.8 16C19.9046 16 20.8 15.1046 20.8 14C20.8 12.8954 19.9046 12 18.8 12C17.6955 12 16.8 12.8954 16.8 14C16.8 15.1046 17.6955 16 18.8 16Z" fill="#C0D0DE"/>
<path d="M16.8 21.6C17.6836 21.6 18.4 20.8837 18.4 20C18.4 19.1164 17.6836 18.4 16.8 18.4C15.9163 18.4 15.2 19.1164 15.2 20C15.2 20.8837 15.9163 21.6 16.8 21.6Z" fill="#C0D0DE"/>
<path d="M16.8 21.6C17.6836 21.6 18.4 20.8837 18.4 20C18.4 19.1164 17.6836 18.4 16.8 18.4C15.9163 18.4 15.2 19.1164 15.2 20C15.2 20.8837 15.9163 21.6 16.8 21.6Z" fill="#C0D0DE"/>
</svg>
