<svg width="72" height="72" viewBox="0 0 72 72" fill="none" xmlns="http://www.w3.org/2000/svg">
<rect width="72" height="72" rx="18" fill="#C0D0DE"/>
<mask id="mask0_1_399" style="mask-type:alpha" maskUnits="userSpaceOnUse" x="0" y="0" width="72" height="72">
<rect width="72" height="72" rx="18" fill="white"/>
</mask>
<g mask="url(#mask0_1_399)">
<path d="M43.2615 52.3628V47.249C44.412 46.6788 47.7026 42.7616 48.0478 39.7009C48.9529 39.6319 50.3745 38.8009 50.7938 35.5204C51.0188 33.7586 50.124 32.7691 49.5819 32.4572C49.5819 32.4572 50.9319 29.8926 50.9319 26.7961C50.9319 20.5879 48.4953 15.29 43.2615 15.29C43.2615 15.29 41.4436 11.4546 35.591 11.4546C24.745 11.4546 20.2501 18.412 20.2501 26.7961C20.2501 29.619 21.6001 32.4572 21.6001 32.4572C21.058 32.7691 20.1632 33.7612 20.3882 35.5204C20.8075 38.8009 22.2291 39.6319 23.1342 39.7009C23.4794 42.7616 26.77 46.6788 27.9205 47.249V52.3628C25.3637 60.0336 4.90918 54.9198 4.90918 72.8182H66.2728C66.2728 54.9198 45.8183 60.0336 43.2615 52.3628Z" fill="white"/>
</g>
</svg>
