<svg width="20" height="20" viewBox="0 0 20 20" fill="none" xmlns="http://www.w3.org/2000/svg">
<path d="M17.4301 10.975C17.4701 10.655 17.5001 10.33 17.5001 10C17.5001 9.67 17.4701 9.345 17.4301 9.025L19.5451 7.37C19.7351 7.22 19.7901 6.95 19.6651 6.73L17.6651 3.265C17.5401 3.05 17.2801 2.96 17.0551 3.05L14.5651 4.055C14.0501 3.66 13.4851 3.325 12.8751 3.07L12.5001 0.42C12.4551 0.185 12.2501 0 12.0001 0H8.00007C7.75007 0 7.54507 0.185 7.50507 0.42L7.13007 3.07C6.52007 3.325 5.95507 3.655 5.44007 4.055L2.95007 3.05C2.72507 2.965 2.46507 3.05 2.34007 3.265L0.340072 6.73C0.215072 6.945 0.270072 7.215 0.460072 7.37L2.57007 9.025C2.53007 9.345 2.50007 9.67 2.50007 10C2.50007 10.33 2.53007 10.655 2.57007 10.975L0.460072 12.63C0.270072 12.78 0.215072 13.05 0.340072 13.27L2.34007 16.735C2.46507 16.95 2.72507 17.04 2.95007 16.95L5.44007 15.945C5.95507 16.34 6.52007 16.675 7.13007 16.93L7.50507 19.58C7.54507 19.815 7.75007 20 8.00007 20H12.0001C12.2501 20 12.4551 19.815 12.4951 19.58L12.8701 16.93C13.4801 16.675 14.0451 16.345 14.5601 15.945L17.0501 16.95C17.2751 17.035 17.5351 16.95 17.6601 16.735L19.6601 13.27C19.7851 13.055 19.7301 12.785 19.5401 12.63L17.4301 10.975ZM10.0001 13.5C8.06507 13.5 6.50007 11.935 6.50007 10C6.50007 8.065 8.06507 6.5 10.0001 6.5C11.9351 6.5 13.5001 8.065 13.5001 10C13.5001 11.935 11.9351 13.5 10.0001 13.5Z" fill="white"/>
</svg>
